<svg xmlns="http://www.w3.org/2000/svg" viewBox="0 0 549 155.78"><defs><style>.cls-1{fill:#3e7b80;}.cls-2{fill:#65c8d0;}</style></defs><title>Asset 1</title><g id="Layer_2" data-name="Layer 2"><g id="Layer_1-2" data-name="Layer 1"><path class="cls-1" d="M87.8,5V104.5h0v15.75h0v35.39h-17V120.26H0V105.34Q9.87,94.21,20,81.55T39.23,55.87q9.19-13,17-26A237.64,237.64,0,0,0,69.42,5ZM19.43,104.5H70.79V30.77Q62.91,44.53,55.87,55.35T42.48,75q-6.36,8.82-12.13,16T19.43,104.5Z"/><path class="cls-2" d="M148.47,155.65H70.33V5H88V139.69h60.5Z"/><path class="cls-2" d="M269,155.65H249.48l-16-42.22H169.66l-15,42.22H135L192.76,5H211ZM227.74,97.57,204.11,33.4a61.24,61.24,0,0,1-2.31-10.08h-.42A56.41,56.41,0,0,1,199,33.4L175.54,97.57Z"/><path class="cls-2" d="M346.06,92.34q0,63.44-57.24,63.44c-12.27,0-28.82-.13-28.82-.13s-26-33.87-26-60.89V2.65h17.64v91q0,46.32,39.07,46.32,37.7,0,37.7-44.74V2.65h17.64Z"/><path class="cls-2" d="M450,142.84q-22.69,12.81-50.41,12.81-32.24,0-52.15-20.79t-19.9-55q0-35,22.11-57.4T405.68,0Q430.25,0,447,8V27.52Q428.68,16,403.68,16,378.37,16,362.2,33.4T346,78.56q0,28.57,15,44.9t40.75,16.33q17.65,0,30.56-7V90.53h-33V77.82l36.4-3.26Z"/><path class="cls-2" d="M549,155.65H531.36V87H453.43v68.69H435.78V74.57l95.57-3.47h0V5H549Z"/></g></g></svg>