<svg xmlns="http://www.w3.org/2000/svg" viewBox="0 0 148.94 44.97"><defs><style>.cls-1,.cls-2{fill:#65c8d0;}.cls-2{stroke:#fff;stroke-miterlimit:10;stroke-width:0px;}.cls-3{fill:#3e7b80;}</style></defs><title>Asset 9</title><g id="Layer_2" data-name="Layer 2"><g id="Layer_1-2" data-name="Layer 1"><path class="cls-1" d="M115.28,19.19"/><path class="cls-1" d="M115.28,19.19"/><path class="cls-2" d="M120.71,18.82h22.23V0h6V45h-6V23.89H120.71V45h-5.93V18.89Z"/><path class="cls-3" d="M20.59,44.73V32.66H0v-4L19.78.41h6.48V44.73Zm0-16.77V13.16q0-3.48.21-7h-.21c-1.36,2.59-2.45,4.5-3.68,6.55L6.07,27.82V28Z"/><path class="cls-1" d="M37.16,30.79,32.39,44.73H26.25L41.87.41H49L64.71,44.73H58.37L53.46,30.79Zm15.07-4.47-4.5-12.76c-1-2.89-1.7-5.52-2.38-8.09h-.14c-.68,2.63-1.43,5.33-2.32,8l-4.5,12.82Z"/><path class="cls-1" d="M20.36.41h5.93V39.93H45.93v4.8H20.36Z"/><path class="cls-1" d="M59.59.41V26.23c0,9.77,4.57,13.91,10.7,13.91,6.82,0,11.18-4.27,11.18-13.91V.41h6V25.84c0,13.39-7.43,18.89-17.39,18.89-9.41,0-16.5-5.11-16.5-18.63L49,.41Z"/><path class="cls-1" d="M119.22,42.56A44.59,44.59,0,0,1,105.11,45h-1c-6.49-.16-11.88-1.88-16.16-5.78-4-3.65-6.41-9.51-6.41-16.34a22.44,22.44,0,0,1,4.67-14C92.8.46,103.33.32,106.41.26a41,41,0,0,1,5.67.34,29.8,29.8,0,0,1,5.7,1.57s-.19.4-.14.45l-.83,2.63-2.36-.15s-4.82-.17-8.17-.17c-11.18,0-18.48,6.64-18.48,17.64s7,17.71,17.73,17.71c3.89,0,6.55-.52,7.91-1.17V26h-9.34V21.46h15.14Z"/><rect class="cls-1" x="63.33" y="43.33" width="6.98" height="1.41"/><rect class="cls-1" x="105.24" y="41.97" width="9.57" height="3"/><polyline class="cls-1" points="104.09 21.46 114.81 18.89 114.93 21.66 114.93 24.31 110.81 24.31"/><path class="cls-1" d="M68.91,44.73"/><polyline class="cls-1" points="67.5 44.73 106.12 44.97 85.18 35.93"/><polyline class="cls-1" points="87.16 8.75 87.14 0.41 118.4 0.17 116.78 5.25 106.44 0.34"/></g></g></svg>